<svg xmlns="http://www.w3.org/2000/svg" xmlns:xlink="http://www.w3.org/1999/xlink" width="57" height="57" version="1.1" viewBox="0 0 57 57"><title>Ruby_logo</title><desc>Created with Sketch.</desc><defs><linearGradient id="linearGradient-1" x1="84.75%" x2="58.254%" y1="111.399%" y2="64.584%"><stop offset="0%" stop-color="#FB7655"/><stop offset="0%" stop-color="#FB7655"/><stop offset="41%" stop-color="#E42B1E"/><stop offset="99%" stop-color="#900"/><stop offset="100%" stop-color="#900"/></linearGradient><linearGradient id="linearGradient-2" x1="116.651%" x2="1.746%" y1="60.89%" y2="19.288%"><stop offset="0%" stop-color="#871101"/><stop offset="0%" stop-color="#871101"/><stop offset="99%" stop-color="#911209"/><stop offset="100%" stop-color="#911209"/></linearGradient><linearGradient id="linearGradient-3" x1="75.774%" x2="38.978%" y1="219.327%" y2="7.829%"><stop offset="0%" stop-color="#871101"/><stop offset="0%" stop-color="#871101"/><stop offset="99%" stop-color="#911209"/><stop offset="100%" stop-color="#911209"/></linearGradient><linearGradient id="linearGradient-4" x1="50.012%" x2="66.483%" y1="7.234%" y2="79.135%"><stop offset="0%" stop-color="#FFF"/><stop offset="0%" stop-color="#FFF"/><stop offset="23%" stop-color="#E57252"/><stop offset="46%" stop-color="#DE3B20"/><stop offset="99%" stop-color="#A60003"/><stop offset="100%" stop-color="#A60003"/></linearGradient><linearGradient id="linearGradient-5" x1="46.174%" x2="49.932%" y1="16.348%" y2="83.047%"><stop offset="0%" stop-color="#FFF"/><stop offset="0%" stop-color="#FFF"/><stop offset="23%" stop-color="#E4714E"/><stop offset="56%" stop-color="#BE1A0D"/><stop offset="99%" stop-color="#A80D00"/><stop offset="100%" stop-color="#A80D00"/></linearGradient><linearGradient id="linearGradient-6" x1="36.965%" x2="49.528%" y1="15.594%" y2="92.478%"><stop offset="0%" stop-color="#FFF"/><stop offset="0%" stop-color="#FFF"/><stop offset="18%" stop-color="#E46342"/><stop offset="40%" stop-color="#C82410"/><stop offset="99%" stop-color="#A80D00"/><stop offset="100%" stop-color="#A80D00"/></linearGradient><linearGradient id="linearGradient-7" x1="13.609%" x2="85.764%" y1="58.346%" y2="-46.717%"><stop offset="0%" stop-color="#FFF"/><stop offset="0%" stop-color="#FFF"/><stop offset="54%" stop-color="#C81F11"/><stop offset="99%" stop-color="#BF0905"/><stop offset="100%" stop-color="#BF0905"/></linearGradient><linearGradient id="linearGradient-8" x1="27.624%" x2="50.745%" y1="21.135%" y2="79.056%"><stop offset="0%" stop-color="#FFF"/><stop offset="0%" stop-color="#FFF"/><stop offset="31%" stop-color="#DE4024"/><stop offset="99%" stop-color="#BF190B"/><stop offset="100%" stop-color="#BF190B"/></linearGradient><linearGradient id="linearGradient-9" x1="-20.667%" x2="104.242%" y1="122.282%" y2="-6.342%"><stop offset="0%" stop-color="#BD0012"/><stop offset="0%" stop-color="#BD0012"/><stop offset="7%" stop-color="#FFF"/><stop offset="17%" stop-color="#FFF"/><stop offset="27%" stop-color="#C82F1C"/><stop offset="33%" stop-color="#820C01"/><stop offset="46%" stop-color="#A31601"/><stop offset="72%" stop-color="#B31301"/><stop offset="99%" stop-color="#E82609"/><stop offset="100%" stop-color="#E82609"/></linearGradient><linearGradient id="linearGradient-10" x1="58.792%" x2="11.964%" y1="65.205%" y2="50.128%"><stop offset="0%" stop-color="#8C0C01"/><stop offset="0%" stop-color="#8C0C01"/><stop offset="54%" stop-color="#990C00"/><stop offset="99%" stop-color="#A80D0E"/><stop offset="100%" stop-color="#A80D0E"/></linearGradient><linearGradient id="linearGradient-11" x1="79.319%" x2="23.088%" y1="62.754%" y2="17.888%"><stop offset="0%" stop-color="#7E110B"/><stop offset="0%" stop-color="#7E110B"/><stop offset="99%" stop-color="#9E0C00"/><stop offset="100%" stop-color="#9E0C00"/></linearGradient><linearGradient id="linearGradient-12" x1="92.88%" x2="59.841%" y1="74.122%" y2="39.704%"><stop offset="0%" stop-color="#79130D"/><stop offset="0%" stop-color="#79130D"/><stop offset="99%" stop-color="#9E120B"/><stop offset="100%" stop-color="#9E120B"/></linearGradient><radialGradient id="radialGradient-13" cx="32.001%" cy="40.21%" r="69.573%" fx="32.001%" fy="40.21%" gradientTransform="translate(0.320008,0.402100),scale(0.522539,1.000000),translate(-0.320008,-0.402100)"><stop offset="0%" stop-color="#A80D00"/><stop offset="0%" stop-color="#A80D00"/><stop offset="99%" stop-color="#7E0E08"/><stop offset="100%" stop-color="#7E0E08"/></radialGradient><radialGradient id="radialGradient-14" cx="13.549%" cy="40.86%" r="88.386%" fx="13.549%" fy="40.86%" gradientTransform="translate(0.135494,0.408599),scale(0.778453,1.000000),translate(-0.135494,-0.408599)"><stop offset="0%" stop-color="#A30C00"/><stop offset="0%" stop-color="#A30C00"/><stop offset="99%" stop-color="#800E08"/><stop offset="100%" stop-color="#800E08"/></radialGradient><linearGradient id="linearGradient-15" x1="56.57%" x2="3.105%" y1="101.717%" y2="11.993%"><stop offset="0%" stop-color="#8B2114"/><stop offset="0%" stop-color="#8B2114"/><stop offset="43%" stop-color="#9E100A"/><stop offset="99%" stop-color="#B3100C"/><stop offset="100%" stop-color="#B3100C"/></linearGradient><linearGradient id="linearGradient-16" x1="30.87%" x2="92.471%" y1="35.599%" y2="100.694%"><stop offset="0%" stop-color="#B31000"/><stop offset="0%" stop-color="#B31000"/><stop offset="44%" stop-color="#910F08"/><stop offset="99%" stop-color="#791C12"/><stop offset="100%" stop-color="#791C12"/></linearGradient></defs><g id="Final-Screens" fill="none" fill-rule="evenodd" stroke="none" stroke-width="1"><g id="4.-App-Selected" transform="translate(-377.000000, -193.000000)"><g id="Ruby_logo" transform="translate(377.000000, 193.000000)"><polygon id="polygon3282" fill="url(#linearGradient-1)" points="43.967 37.354 11.566 56.593 53.52 53.746 56.751 11.443"/><polygon id="polygon3293" fill="url(#linearGradient-2)" points="53.588 53.717 49.982 28.829 40.16 41.799"/><polygon id="polygon3304" fill="url(#linearGradient-3)" points="53.637 53.717 27.22 51.644 11.706 56.539"/><polygon id="polygon3319" fill="url(#linearGradient-4)" points="11.744 56.545 18.343 34.925 3.821 38.03"/><polygon id="polygon3334" fill="url(#linearGradient-5)" points="40.158 41.871 34.085 18.085 16.708 34.375"/><polygon id="polygon3349" fill="url(#linearGradient-6)" points="55.373 18.42 38.946 5.004 34.372 19.792"/><polygon id="polygon3362" fill="url(#linearGradient-7)" points="47.691 .221 38.03 5.56 31.934 .149"/><polygon id="polygon3375" fill="url(#linearGradient-8)" points="0 45.282 4.047 37.901 .773 29.107"/><path id="path3377" fill="#FFF" d="M0.555678392,28.829397 L3.84964824,38.1728141 L18.1626633,34.9616231 L34.5036181,19.7749899 L39.1151759,5.12713568 L31.8538342,0 L19.508608,4.62015075 C15.6191457,8.23778894 8.07165829,15.3957286 7.79954774,15.5303518 C7.53030151,15.6678392 2.81562814,24.5787437 0.555678392,28.829397 Z"/><path id="path3400" fill="url(#linearGradient-9)" d="M12.121809,12.0444724 C20.5515075,3.68638191 31.4187437,-1.25170854 35.589196,2.9559799 C39.7570704,7.16366834 35.3371357,17.3892965 26.9074372,25.7445226 C18.4777387,34.0997487 7.74512563,39.3099497 3.57753769,35.1022613 C-0.592914573,30.8974372 3.69211055,20.3996985 12.121809,12.0444724 Z"/><path id="path3413" fill="url(#linearGradient-10)" d="M11.7437186,56.5359799 L18.2915578,34.8473367 L40.0374874,41.8334171 C32.1749246,49.2061809 23.4301508,55.4389447 11.7437186,56.5359799 Z"/><path id="path3424" fill="url(#linearGradient-11)" d="M34.5322613,19.7323116 L40.1148241,41.8448744 C46.6827136,34.938995 52.5774874,27.5146734 55.4644372,18.3316583 L34.5322613,19.7323116 Z"/><path id="path3435" fill="url(#linearGradient-12)" d="M55.4074372,18.4433668 C57.641608,11.7007538 58.1571859,2.0279397 47.6219246,0.23201005 L38.977402,5.00683417 L55.4074372,18.4433668 L55.4074372,18.4433668 Z"/><path id="path3437" fill="#9E1209" d="M0,45.1846734 C0.309346734,56.3128492 8.3380402,56.4786935 11.7580402,56.5763668 L3.85824121,38.1269849 L0,45.1846734 Z"/><path id="path3448" fill="url(#radialGradient-13)" d="M34.5634824,19.7666834 C39.6104171,22.8687437 49.7819095,29.0986432 49.9881407,29.2132161 C50.3086583,29.3936683 54.3734171,22.3588945 55.2957286,18.3832161 L34.5634824,19.7666834 Z"/><path id="path3459" fill="url(#radialGradient-14)" d="M18.2829648,34.8473367 L27.0363317,51.7353769 C32.2121608,48.9283417 36.2651759,45.5083417 39.9773367,41.8448744 L18.2829648,34.8473367 Z"/><path id="path3472" fill="url(#linearGradient-15)" d="M3.82386935,38.1498995 L2.58361809,52.9183417 C4.92376884,56.1149246 8.14326633,56.3927638 11.5203015,56.1435678 C9.07703518,50.0626131 4.19623116,37.9035678 3.82386935,38.1498995 Z"/><path id="path3485" fill="url(#linearGradient-16)" d="M38.9261307,5.04407035 L56.3154271,7.48447236 C55.3873869,3.55175879 52.5373869,1.01396985 47.6794975,0.220552764 L38.9261307,5.04407035 Z"/></g></g></g></svg>